<svg xmlns="http://www.w3.org/2000/svg" viewBox="0 0 600 300">

  <rect width="600" height="300" fill="#EDF4E7"/>
  <rect x="40" y="60" width="140" height="180" rx="14" fill="#ffffff" stroke="#B7D2A9" stroke-width="2"/>
  <rect x="40" y="60" width="140" height="46" rx="14" fill="#3F6B33"/>
  <rect x="40" y="88" width="140" height="18" fill="#3F6B33"/>
  <text x="110" y="87" text-anchor="middle" font-family="system-ui,sans-serif" font-size="12" font-weight="700" fill="#ffffff">설치 완료</text>
  <circle cx="110" cy="160" r="28" fill="#EDF4E7" stroke="#B7D2A9" stroke-width="2"/>
  <circle cx="110" cy="160" r="14" fill="#3F6B33"/><circle cx="110" cy="160" r="6" fill="#ffffff"/>
  <rect x="107" y="128" width="6" height="10" rx="3" fill="#3F6B33"/>
  <rect x="107" y="182" width="6" height="10" rx="3" fill="#3F6B33"/>
  <rect x="78" y="157" width="10" height="6" rx="3" fill="#3F6B33"/>
  <rect x="132" y="157" width="10" height="6" rx="3" fill="#3F6B33"/>
  <text x="110" y="225" text-anchor="middle" font-family="system-ui,sans-serif" font-size="11" fill="#5E6B61">IoT 세팅 완료</text>
  <polygon points="196,145 210,155 196,165" fill="#87B570"/>
  <line x1="180" y1="155" x2="196" y2="155" stroke="#87B570" stroke-width="2"/>
  <rect x="220" y="60" width="160" height="180" rx="14" fill="#ffffff" stroke="#87B570" stroke-width="2.5"/>
  <rect x="220" y="60" width="160" height="46" rx="14" fill="#87B570"/>
  <rect x="220" y="88" width="160" height="18" fill="#87B570"/>
  <text x="300" y="87" text-anchor="middle" font-family="system-ui,sans-serif" font-size="12" font-weight="700" fill="#ffffff">효과 추적</text>
  <rect x="244" y="185" width="22" height="40" rx="4" fill="#E05656" opacity=".7"/>
  <rect x="272" y="175" width="22" height="50" rx="4" fill="#E05656" opacity=".7"/>
  <rect x="300" y="155" width="22" height="70" rx="4" fill="#F5A623" opacity=".7"/>
  <rect x="328" y="135" width="22" height="90" rx="4" fill="#87B570"/>
  <path d="M244,188 Q280,165 340,138" fill="none" stroke="#3F6B33" stroke-width="2.5" stroke-dasharray="5,3"/>
  <polygon points="337,130 346,140 327,142" fill="#3F6B33" opacity=".8"/>
  <text x="300" y="225" text-anchor="middle" font-family="system-ui,sans-serif" font-size="11" fill="#3F6B33" font-weight="700">당일주문 감소 확인</text>
  <polygon points="386,145 400,155 386,165" fill="#87B570"/>
  <line x1="380" y1="155" x2="386" y2="155" stroke="#87B570" stroke-width="2"/>
  <rect x="410" y="60" width="150" height="180" rx="14" fill="#ffffff" stroke="#B7D2A9" stroke-width="2"/>
  <rect x="410" y="60" width="150" height="46" rx="14" fill="#3F6B33"/>
  <rect x="410" y="88" width="150" height="18" fill="#3F6B33"/>
  <text x="485" y="87" text-anchor="middle" font-family="system-ui,sans-serif" font-size="12" font-weight="700" fill="#ffffff">지속 점검</text>
  <rect x="432" y="110" width="106" height="20" rx="5" fill="#EDF4E7"/>
  <circle cx="444" cy="120" r="6" fill="#87B570"/>
  <polyline points="441,120 444,123 449,117" fill="none" stroke="#ffffff" stroke-width="1.5" stroke-linecap="round" stroke-linejoin="round"/>
  <text x="470" y="124" font-family="system-ui,sans-serif" font-size="11" fill="#3F6B33">데이터 안정성</text>
  <rect x="432" y="138" width="106" height="20" rx="5" fill="#EDF4E7"/>
  <circle cx="444" cy="148" r="6" fill="#87B570"/>
  <polyline points="441,148 444,151 449,145" fill="none" stroke="#ffffff" stroke-width="1.5" stroke-linecap="round" stroke-linejoin="round"/>
  <text x="470" y="152" font-family="system-ui,sans-serif" font-size="11" fill="#3F6B33">주문 감소 효과</text>
  <rect x="432" y="166" width="106" height="20" rx="5" fill="#EDF4E7"/>
  <circle cx="444" cy="176" r="6" fill="#87B570"/>
  <polyline points="441,176 444,179 449,173" fill="none" stroke="#ffffff" stroke-width="1.5" stroke-linecap="round" stroke-linejoin="round"/>
  <text x="470" y="180" font-family="system-ui,sans-serif" font-size="11" fill="#3F6B33">농가별 개선 현황</text>
  <text x="485" y="225" text-anchor="middle" font-family="system-ui,sans-serif" font-size="11" fill="#5E6B61">함께 점검합니다</text>

</svg>