<svg xmlns="http://www.w3.org/2000/svg" viewBox="0 0 400 220">

  <rect width="400" height="220" fill="#ffffff"/>
  <rect width="400" height="40" fill="#3F6B33"/>
  <text x="200" y="26" text-anchor="middle" font-family="system-ui,sans-serif" font-size="14" font-weight="700" fill="#ffffff">농가별 사료빈 잔량 현황</text>
  
  <text x="20" y="65" font-family="system-ui,sans-serif" font-size="12" fill="#5E6B61">강원 A농장</text>
  <rect x="110" y="52" width="180" height="16" rx="8" fill="#f0f4ee"/>
  <rect x="110" y="52" width="147" height="16" rx="8" fill="#3F6B33" opacity=".85"/>
  <text x="298" y="65" font-family="system-ui,sans-serif" font-size="12" font-weight="700" fill="#3F6B33">82%</text>
  
  <text x="20" y="97" font-family="system-ui,sans-serif" font-size="12" fill="#5E6B61">경기 B농장</text>
  <rect x="110" y="84" width="180" height="16" rx="8" fill="#f0f4ee"/>
  <rect x="110" y="84" width="127" height="16" rx="8" fill="#87B570" opacity=".85"/>
  <text x="298" y="97" font-family="system-ui,sans-serif" font-size="12" font-weight="700" fill="#87B570">71%</text>
  
  <text x="20" y="129" font-family="system-ui,sans-serif" font-size="12" fill="#5E6B61">충남 C농장</text>
  <rect x="110" y="116" width="180" height="16" rx="8" fill="#f0f4ee"/>
  <rect x="110" y="116" width="63" height="16" rx="8" fill="#F5A623" opacity=".85"/>
  <text x="298" y="129" font-family="system-ui,sans-serif" font-size="12" font-weight="700" fill="#F5A623">35%</text>
  
  <text x="20" y="161" font-family="system-ui,sans-serif" font-size="12" fill="#5E6B61">전북 D농장</text>
  <rect x="110" y="148" width="180" height="16" rx="8" fill="#f0f4ee"/>
  <rect x="110" y="148" width="120" height="16" rx="8" fill="#87B570" opacity=".85"/>
  <text x="298" y="161" font-family="system-ui,sans-serif" font-size="12" font-weight="700" fill="#87B570">67%</text>
  
  <text x="20" y="193" font-family="system-ui,sans-serif" font-size="12" fill="#5E6B61">경남 E농장</text>
  <rect x="110" y="180" width="180" height="16" rx="8" fill="#f0f4ee"/>
  <rect x="110" y="180" width="32" height="16" rx="8" fill="#f5a623" opacity=".85"/>
  <text x="298" y="193" font-family="system-ui,sans-serif" font-size="12" font-weight="700" fill="#f5a623">18%</text>
  <rect x="290" y="180" width="60" height="16" rx="4" fill="#f5a623" opacity=".15"/>
  <text x="320" y="192" text-anchor="middle" font-family="system-ui,sans-serif" font-size="10" font-weight="700" fill="#f5a623">긴급</text>

</svg>