<svg xmlns="http://www.w3.org/2000/svg" viewBox="0 0 600 300">

  <rect width="600" height="300" fill="#F8FBF5"/>
  <rect width="600" height="48" fill="#3F6B33"/>
  <text x="30" y="30" font-family="system-ui,sans-serif" font-size="16" font-weight="800" fill="#ffffff">마이피드 · 농가 잔량 현황</text>
  <rect x="486" y="12" width="96" height="24" rx="6" fill="#87B570" opacity=".4"/>
  <text x="534" y="28" text-anchor="middle" font-family="system-ui,sans-serif" font-size="11" fill="#ffffff">전체 12농가</text>
  <rect x="20" y="60" width="560" height="30" rx="8" fill="#ffffff" stroke="#B7D2A9" stroke-width="1"/><text x="36" y="80" font-family="system-ui,sans-serif" font-size="12" font-weight="600" fill="#3F6B33">강원 A농장</text><rect x="200" y="67" width="290" height="14" rx="7" fill="#eef3e8"/><rect x="200" y="67" width="246" height="14" rx="7" fill="#3F6B33" opacity=".8"/><text x="500" y="80" font-family="system-ui,sans-serif" font-size="12" font-weight="800" fill="#3F6B33">85%</text><rect x="20" y="98" width="560" height="30" rx="8" fill="#ffffff" stroke="#B7D2A9" stroke-width="1"/><text x="36" y="118" font-family="system-ui,sans-serif" font-size="12" font-weight="600" fill="#3F6B33">경기 B농장</text><rect x="200" y="105" width="290" height="14" rx="7" fill="#eef3e8"/><rect x="200" y="105" width="232" height="14" rx="7" fill="#87B570" opacity=".8"/><text x="500" y="118" font-family="system-ui,sans-serif" font-size="12" font-weight="800" fill="#87B570">80%</text><rect x="20" y="136" width="560" height="30" rx="8" fill="#FFF3E0" stroke="#F5A623" stroke-width="1"/><text x="36" y="156" font-family="system-ui,sans-serif" font-size="12" font-weight="600" fill="#3F6B33">충남 C농장</text><rect x="200" y="143" width="290" height="14" rx="7" fill="#eef3e8"/><rect x="200" y="143" width="102" height="14" rx="7" fill="#C07A00" opacity=".8"/><text x="500" y="156" font-family="system-ui,sans-serif" font-size="12" font-weight="800" fill="#C07A00">35%</text><rect x="20" y="174" width="560" height="30" rx="8" fill="#ffffff" stroke="#B7D2A9" stroke-width="1"/><text x="36" y="194" font-family="system-ui,sans-serif" font-size="12" font-weight="600" fill="#3F6B33">전북 D농장</text><rect x="200" y="181" width="290" height="14" rx="7" fill="#eef3e8"/><rect x="200" y="181" width="204" height="14" rx="7" fill="#87B570" opacity=".8"/><text x="500" y="194" font-family="system-ui,sans-serif" font-size="12" font-weight="800" fill="#87B570">70%</text><rect x="20" y="212" width="560" height="30" rx="8" fill="#ffffff" stroke="#B7D2A9" stroke-width="1"/><text x="36" y="232" font-family="system-ui,sans-serif" font-size="12" font-weight="600" fill="#3F6B33">경남 E농장</text><rect x="200" y="219" width="290" height="14" rx="7" fill="#eef3e8"/><rect x="200" y="219" width="275" height="14" rx="7" fill="#87B570" opacity=".8"/><text x="500" y="232" font-family="system-ui,sans-serif" font-size="12" font-weight="800" fill="#87B570">95%</text><rect x="20" y="250" width="560" height="30" rx="8" fill="#ffffff" stroke="#B7D2A9" stroke-width="1"/><text x="36" y="270" font-family="system-ui,sans-serif" font-size="12" font-weight="600" fill="#3F6B33">충북 F농장</text><rect x="200" y="257" width="290" height="14" rx="7" fill="#eef3e8"/><rect x="200" y="257" width="218" height="14" rx="7" fill="#87B570" opacity=".8"/><text x="500" y="270" font-family="system-ui,sans-serif" font-size="12" font-weight="800" fill="#87B570">75%</text>
  <rect x="476" y="96" width="58" height="18" rx="6" fill="#F5A623" opacity=".2"/>
  <text x="505" y="109" text-anchor="middle" font-family="system-ui,sans-serif" font-size="10" font-weight="700" fill="#C07A00">부족 예상</text>

</svg>