<svg xmlns="http://www.w3.org/2000/svg" viewBox="0 0 600 300">

  <rect width="600" height="300" fill="#ffffff"/>
  <rect x="0" y="0" width="290" height="300" fill="#EDF4E7"/>
  <rect x="20" y="20" width="252" height="262" rx="16" fill="#ffffff" stroke="#B7D2A9" stroke-width="1.5"/>
  <rect x="20" y="20" width="252" height="44" rx="16" fill="#3F6B33"/>
  <rect x="20" y="44" width="252" height="20" fill="#3F6B33"/>
  <text x="146" y="46" text-anchor="middle" font-family="system-ui,sans-serif" font-size="13" font-weight="700" fill="#ffffff">알림 센터</text>
  <rect x="32" y="76" width="228" height="56" rx="10" fill="#FFF3E0" stroke="#F5A623" stroke-width="1.5"/>
  <circle cx="52" cy="104" r="12" fill="#F5A623"/>
  <rect x="51" y="97" width="2" height="8" rx="1" fill="#ffffff"/>
  <rect x="51" y="107" width="2" height="2" rx="1" fill="#ffffff"/>
  <text x="72" y="97" font-family="system-ui,sans-serif" font-size="12" font-weight="700" fill="#C07A00">충남 C농장 — 잔량 부족 예상</text>
  <text x="72" y="113" font-family="system-ui,sans-serif" font-size="11" fill="#5E6B61">현재 35% · D-2일 소진 예상</text>
  <rect x="32" y="144" width="228" height="52" rx="10" fill="#FFF0F0" stroke="#E05656" stroke-width="1.5"/>
  <circle cx="52" cy="170" r="12" fill="#E05656" opacity=".8"/>
  <rect x="51" y="163" width="2" height="8" rx="1" fill="#ffffff"/>
  <rect x="51" y="173" width="2" height="2" rx="1" fill="#ffffff"/>
  <text x="72" y="163" font-family="system-ui,sans-serif" font-size="12" font-weight="700" fill="#E05656">강원 G농장 — 긴급</text>
  <text x="72" y="179" font-family="system-ui,sans-serif" font-size="11" fill="#5E6B61">현재 12% · 오늘 소진 예상</text>
  <rect x="32" y="208" width="228" height="48" rx="10" fill="#EDF4E7" stroke="#B7D2A9" stroke-width="1"/>
  <circle cx="52" cy="232" r="12" fill="#87B570" opacity=".6"/>
  <text x="72" y="226" font-family="system-ui,sans-serif" font-size="12" fill="#3F6B33">경기 B농장 — 정상</text>
  <text x="72" y="242" font-family="system-ui,sans-serif" font-size="11" fill="#5E6B61">현재 80% · 잔량 충분</text>
  <rect x="310" y="20" width="270" height="260" rx="16" fill="#3F6B33"/>
  <text x="445" y="70" text-anchor="middle" font-family="system-ui,sans-serif" font-size="14" fill="#B7D2A9">충남 C농장 소진 예측</text>
  <text x="445" y="158" text-anchor="middle" font-family="system-ui,sans-serif" font-size="82" font-weight="800" fill="#ffffff">D-2</text>
  <line x1="350" y1="182" x2="540" y2="182" stroke="#87B570" stroke-width="1" opacity=".3"/>
  <text x="445" y="212" text-anchor="middle" font-family="system-ui,sans-serif" font-size="13" fill="#B7D2A9">배송 일정을 지금 조율하세요</text>
  <rect x="360" y="228" width="170" height="36" rx="10" fill="#87B570"/>
  <text x="445" y="251" text-anchor="middle" font-family="system-ui,sans-serif" font-size="13" font-weight="700" fill="#ffffff">배송 일정 추가하기</text>

</svg>