<svg xmlns="http://www.w3.org/2000/svg" viewBox="0 0 600 300">

  <rect width="600" height="300" fill="#EEF6F0"/>
  <line x1="0" y1="0" x2="600" y2="0" stroke="#3F6B33" stroke-width="0.5" opacity=".1"/><line x1="0" y1="40" x2="600" y2="40" stroke="#3F6B33" stroke-width="0.5" opacity=".1"/><line x1="0" y1="80" x2="600" y2="80" stroke="#3F6B33" stroke-width="0.5" opacity=".1"/><line x1="0" y1="120" x2="600" y2="120" stroke="#3F6B33" stroke-width="0.5" opacity=".1"/><line x1="0" y1="160" x2="600" y2="160" stroke="#3F6B33" stroke-width="0.5" opacity=".1"/><line x1="0" y1="200" x2="600" y2="200" stroke="#3F6B33" stroke-width="0.5" opacity=".1"/><line x1="0" y1="240" x2="600" y2="240" stroke="#3F6B33" stroke-width="0.5" opacity=".1"/><line x1="0" y1="280" x2="600" y2="280" stroke="#3F6B33" stroke-width="0.5" opacity=".1"/>
  <line x1="0" y1="0" x2="0" y2="300" stroke="#3F6B33" stroke-width="0.5" opacity=".1"/><line x1="60" y1="0" x2="60" y2="300" stroke="#3F6B33" stroke-width="0.5" opacity=".1"/><line x1="120" y1="0" x2="120" y2="300" stroke="#3F6B33" stroke-width="0.5" opacity=".1"/><line x1="180" y1="0" x2="180" y2="300" stroke="#3F6B33" stroke-width="0.5" opacity=".1"/><line x1="240" y1="0" x2="240" y2="300" stroke="#3F6B33" stroke-width="0.5" opacity=".1"/><line x1="300" y1="0" x2="300" y2="300" stroke="#3F6B33" stroke-width="0.5" opacity=".1"/><line x1="360" y1="0" x2="360" y2="300" stroke="#3F6B33" stroke-width="0.5" opacity=".1"/><line x1="420" y1="0" x2="420" y2="300" stroke="#3F6B33" stroke-width="0.5" opacity=".1"/><line x1="480" y1="0" x2="480" y2="300" stroke="#3F6B33" stroke-width="0.5" opacity=".1"/><line x1="540" y1="0" x2="540" y2="300" stroke="#3F6B33" stroke-width="0.5" opacity=".1"/><line x1="600" y1="0" x2="600" y2="300" stroke="#3F6B33" stroke-width="0.5" opacity=".1"/>
  <path d="M60,250 Q160,180 300,150 Q440,120 540,80" fill="none" stroke="#ffffff" stroke-width="8" stroke-linecap="round"/>
  <path d="M60,250 Q160,180 300,150 Q440,120 540,80" fill="none" stroke="#5E6B61" stroke-width="3" stroke-linecap="round" opacity=".4"/>
  <path d="M80,250 Q180,200 300,155 Q390,130 490,95" fill="none" stroke="#3F6B33" stroke-width="3.5" stroke-dasharray="10,5" stroke-linecap="round"/>
  <circle cx="80" cy="250" r="16" fill="#3F6B33" stroke="#ffffff" stroke-width="2"/>
  <text x="80" y="255" text-anchor="middle" font-family="system-ui,sans-serif" font-size="11" font-weight="800" fill="#ffffff">출발</text>
  <circle cx="200" cy="195" r="14" fill="#87B570" stroke="#ffffff" stroke-width="2"/>
  <text x="200" y="200" text-anchor="middle" font-family="system-ui,sans-serif" font-size="10" font-weight="800" fill="#ffffff">1</text>
  <rect x="156" y="163" width="88" height="24" rx="6" fill="#ffffff" stroke="#B7D2A9" stroke-width="1"/>
  <text x="200" y="179" text-anchor="middle" font-family="system-ui,sans-serif" font-size="10" font-weight="700" fill="#3F6B33">경기 A농장</text>
  <circle cx="310" cy="150" r="14" fill="#87B570" stroke="#ffffff" stroke-width="2"/>
  <text x="310" y="155" text-anchor="middle" font-family="system-ui,sans-serif" font-size="10" font-weight="800" fill="#ffffff">2</text>
  <rect x="268" y="118" width="84" height="24" rx="6" fill="#ffffff" stroke="#B7D2A9" stroke-width="1"/>
  <text x="310" y="134" text-anchor="middle" font-family="system-ui,sans-serif" font-size="10" font-weight="700" fill="#3F6B33">충남 C농장</text>
  <circle cx="430" cy="112" r="16" fill="#F5A623" stroke="#ffffff" stroke-width="2"/>
  <text x="430" y="117" text-anchor="middle" font-family="system-ui,sans-serif" font-size="10" font-weight="800" fill="#ffffff">긴급</text>
  <rect x="388" y="78" width="84" height="24" rx="6" fill="#FFF3E0" stroke="#F5A623" stroke-width="1"/>
  <text x="430" y="94" text-anchor="middle" font-family="system-ui,sans-serif" font-size="10" font-weight="700" fill="#C07A00">강원 G농장</text>
  <circle cx="530" cy="80" r="14" fill="#87B570" stroke="#ffffff" stroke-width="2"/>
  <text x="530" y="85" text-anchor="middle" font-family="system-ui,sans-serif" font-size="10" font-weight="800" fill="#ffffff">3</text>
  <rect x="45" y="35" width="90" height="50" rx="8" fill="#3F6B33"/>
  <rect x="105" y="25" width="30" height="34" rx="4" fill="#3F6B33"/>
  <circle cx="60" cy="88" r="9" fill="#ffffff"/><circle cx="60" cy="88" r="5" fill="#5E6B61"/>
  <circle cx="118" cy="88" r="9" fill="#ffffff"/><circle cx="118" cy="88" r="5" fill="#5E6B61"/>
  <rect x="45" y="78" width="90" height="12" fill="#3F6B33"/>
  <text x="80" y="58" text-anchor="middle" font-family="system-ui,sans-serif" font-size="11" font-weight="700" fill="#ffffff">배송차량</text>
  <rect x="440" y="210" width="150" height="80" rx="10" fill="#ffffff" stroke="#B7D2A9" stroke-width="1.5" opacity=".95"/>
  <text x="455" y="230" font-family="system-ui,sans-serif" font-size="11" font-weight="700" fill="#3F6B33">오늘 배송 경유지</text>
  <circle cx="456" cy="248" r="5" fill="#87B570"/>
  <text x="468" y="252" font-family="system-ui,sans-serif" font-size="10" fill="#5E6B61">계획 배송 (2농가)</text>
  <circle cx="456" cy="267" r="5" fill="#F5A623"/>
  <text x="468" y="271" font-family="system-ui,sans-serif" font-size="10" fill="#5E6B61">긴급 추가 (1농가)</text>

</svg>