<svg xmlns="http://www.w3.org/2000/svg" viewBox="0 0 400 220">

  <rect width="400" height="220" fill="#EDF4E7"/>
  <!-- Shield shape -->
  <path d="M200,20 L270,48 L270,118 Q270,168 200,192 Q130,168 130,118 L130,48 Z" fill="#3F6B33" opacity=".12" stroke="#3F6B33" stroke-width="2"/>
  <path d="M200,32 L260,56 L260,116 Q260,158 200,178 Q140,158 140,116 L140,56 Z" fill="#ffffff"/>
  <!-- Lock body -->
  <rect x="176" y="100" width="48" height="46" rx="8" fill="#3F6B33"/>
  <!-- Lock shackle -->
  <path d="M186,100 L186,86 Q186,66 200,66 Q214,66 214,86 L214,100" fill="none" stroke="#3F6B33" stroke-width="7" stroke-linecap="round"/>
  <!-- Keyhole -->
  <circle cx="200" cy="118" r="7" fill="#ffffff"/>
  <rect x="197" y="118" width="6" height="12" rx="3" fill="#ffffff"/>
  <text x="200" y="200" text-anchor="middle" font-family="system-ui,sans-serif" font-size="13" font-weight="700" fill="#3F6B33">데이터 보안 · 개인정보 보호</text>

</svg>